<?xml version="1.0" encoding="UTF-8"?>
<svg xmlns="http://www.w3.org/2000/svg" xmlns:xlink="http://www.w3.org/1999/xlink" viewBox="0 0 2753.2 2732.97">
  <defs>
    <style>
      .cls-1, .cls-2 {
        fill: url(#linear-gradient-2);
      }

      .cls-3 {
        fill: url(#linear-gradient-12);
      }

      .cls-3, .cls-4, .cls-5, .cls-6, .cls-7, .cls-8, .cls-9, .cls-10, .cls-11, .cls-12, .cls-13, .cls-14, .cls-15, .cls-16, .cls-17, .cls-18, .cls-19, .cls-20, .cls-21, .cls-22, .cls-23, .cls-24, .cls-25, .cls-26, .cls-27, .cls-28, .cls-2, .cls-29, .cls-30, .cls-31, .cls-32, .cls-33, .cls-34, .cls-35, .cls-36, .cls-37, .cls-38, .cls-39, .cls-40, .cls-41, .cls-42, .cls-43 {
        stroke-width: 0px;
      }

      .cls-4 {
        fill: url(#linear-gradient-17);
      }

      .cls-5 {
        fill: url(#linear-gradient-19);
      }

      .cls-6 {
        fill: url(#linear-gradient-33);
      }

      .cls-7 {
        fill: url(#linear-gradient);
      }

      .cls-8 {
        fill: url(#linear-gradient-21);
      }

      .cls-9 {
        fill: url(#linear-gradient-6);
      }

      .cls-10 {
        fill: #d8dee8;
      }

      .cls-11 {
        opacity: .48;
      }

      .cls-11, .cls-44, .cls-42 {
        mix-blend-mode: soft-light;
      }

      .cls-11, .cls-25, .cls-42 {
        fill: #fff;
      }

      .cls-12 {
        fill: #f4f7fa;
      }

      .cls-45 {
        isolation: isolate;
      }

      .cls-13 {
        fill: url(#linear-gradient-15);
      }

      .cls-14, .cls-33 {
        fill: #bfc8d6;
      }

      .cls-15 {
        fill: url(#linear-gradient-11);
      }

      .cls-16 {
        fill: url(#linear-gradient-5);
      }

      .cls-17 {
        fill: none;
      }

      .cls-18 {
        fill: url(#linear-gradient-31);
      }

      .cls-19 {
        fill: url(#linear-gradient-34);
      }

      .cls-46 {
        clip-path: url(#clippath-1);
      }

      .cls-44 {
        opacity: .5;
      }

      .cls-20 {
        fill: url(#linear-gradient-13);
      }

      .cls-21 {
        fill: url(#linear-gradient-23);
      }

      .cls-22 {
        fill: url(#linear-gradient-25);
      }

      .cls-23 {
        fill: url(#linear-gradient-16);
      }

      .cls-24 {
        fill: url(#linear-gradient-22);
      }

      .cls-26 {
        fill: url(#linear-gradient-32);
      }

      .cls-27 {
        fill: url(#linear-gradient-20);
      }

      .cls-28 {
        fill: url(#linear-gradient-14);
      }

      .cls-47, .cls-33, .cls-43 {
        mix-blend-mode: multiply;
        opacity: .3;
      }

      .cls-29 {
        fill: url(#linear-gradient-7);
      }

      .cls-30 {
        fill: url(#linear-gradient-3);
      }

      .cls-48 {
        clip-path: url(#clippath);
      }

      .cls-31 {
        fill: url(#linear-gradient-9);
      }

      .cls-32 {
        fill: url(#linear-gradient-27);
      }

      .cls-34 {
        fill: url(#linear-gradient-8);
      }

      .cls-35 {
        fill: url(#linear-gradient-24);
      }

      .cls-36 {
        fill: url(#linear-gradient-26);
      }

      .cls-37 {
        fill: url(#linear-gradient-18);
      }

      .cls-38 {
        fill: url(#linear-gradient-30);
      }

      .cls-39 {
        fill: url(#linear-gradient-29);
      }

      .cls-40 {
        fill: url(#linear-gradient-10);
      }

      .cls-41 {
        fill: url(#linear-gradient-4);
      }

      .cls-42 {
        opacity: .74;
      }

      .cls-43 {
        fill: url(#linear-gradient-28);
      }
    </style>
    <linearGradient id="linear-gradient" x1="5459.71" y1="36.03" x2="6264.34" y2="36.03" gradientTransform="translate(-2688.6 -2301.05) rotate(40.7)" gradientUnits="userSpaceOnUse">
      <stop offset="0" stop-color="#ff9085"/>
      <stop offset="1" stop-color="#fb6fbb"/>
    </linearGradient>
    <clipPath id="clippath">
      <path class="cls-17" d="m1433.98,2111.47c-71.13,18.52-124.95-65.02-78.22-121.75,20.33-24.69,39.55-51.94,56.84-82,98.95-172.03,47.81-284.97,136.92-596.39,56.35-196.91,97.65-333.76,216.64-382.04,93.25-37.84,223.03-16.76,286.18,56.77,52.51,61.14,65.1,165.7,58.95,236.44-5.01,57.66-22.73,95.9,1.66,133.22,24.92,38.14,64.41,30.33,89.2,60.21,50.27,60.59-23.57,199.49-35.51,221.94-132.75,249.71-424.24,366.2-552.01,415.48-48.89,18.86-109.39,39.56-180.66,58.12Z"/>
    </clipPath>
    <linearGradient id="linear-gradient-2" x1="1968.2" y1="1494.87" x2="1729.64" y2="2135.23" gradientUnits="userSpaceOnUse">
      <stop offset="0" stop-color="#aa80f9"/>
      <stop offset="1" stop-color="#6165d7"/>
    </linearGradient>
    <clipPath id="clippath-1">
      <path class="cls-2" d="m1300.87,2112.67c108.17,63.36,255.01,128.65,422.2,145.15,42.67,4.21,306.24,30.22,336.46-79.23,10.65-38.55-16.65-61.35-3.32-113.15,15.8-61.37,64.24-68.64,125.27-121.28,36.42-31.41,142.99-123.34,110.79-226.84-19.25-61.85-87.18-125.04-154.82-145.5-99.22-30.02-178.37,37.76-310.31,154.76-116.96,103.72-124.13,141.6-209.66,214.81-63.48,54.34-163.08,122.11-316.6,171.29Z"/>
    </clipPath>
    <linearGradient id="linear-gradient-3" x1="2401.04" y1="726.52" x2="2042.69" y2="625.11" gradientUnits="userSpaceOnUse">
      <stop offset="0" stop-color="#311944"/>
      <stop offset="1" stop-color="#a03976"/>
    </linearGradient>
    <linearGradient id="linear-gradient-4" x1="2400.1" y1="729.84" x2="2041.75" y2="628.43" xlink:href="#linear-gradient-3"/>
    <linearGradient id="linear-gradient-5" x1="2033.3" y1="500.06" x2="2038.9" y2="952.58" gradientTransform="matrix(1,0,0,1,0,0)" xlink:href="#linear-gradient"/>
    <linearGradient id="linear-gradient-6" x1="2359.64" y1="516.8" x2="1657.67" y2="318.16" xlink:href="#linear-gradient-3"/>
    <linearGradient id="linear-gradient-7" x1="2357.8" y1="523.3" x2="1655.82" y2="324.66" xlink:href="#linear-gradient-3"/>
    <linearGradient id="linear-gradient-8" x1="1639.27" y1="73.19" x2="1650.25" y2="959.63" gradientTransform="matrix(1,0,0,1,0,0)" xlink:href="#linear-gradient"/>
    <linearGradient id="linear-gradient-9" x1="687.46" y1="2432.63" x2="3351.22" y2="2432.63" gradientUnits="userSpaceOnUse">
      <stop offset=".49" stop-color="#ebeff2"/>
      <stop offset="1" stop-color="#fff"/>
    </linearGradient>
    <linearGradient id="linear-gradient-10" x1="201.86" y1="1349.22" x2="1712.86" y2="1349.22" gradientUnits="userSpaceOnUse">
      <stop offset="0" stop-color="#e38ddd"/>
      <stop offset="1" stop-color="#9571f6"/>
    </linearGradient>
    <linearGradient id="linear-gradient-11" x1="965.39" y1="405.42" x2="836.33" y2="1571.87" gradientUnits="userSpaceOnUse">
      <stop offset="0" stop-color="#40447e"/>
      <stop offset="1" stop-color="#3c3b6b"/>
    </linearGradient>
    <linearGradient id="linear-gradient-12" x1="483.31" y1="1692.18" x2="1487.09" y2="1692.18" gradientTransform="matrix(1,0,0,1,0,0)" xlink:href="#linear-gradient"/>
    <linearGradient id="linear-gradient-13" x1="-1074.9" y1="1285.76" x2="-750.06" y2="2843.62" gradientTransform="translate(992.96) rotate(-180) scale(1 -1)" gradientUnits="userSpaceOnUse">
      <stop offset="0" stop-color="#ffc444"/>
      <stop offset="1" stop-color="#f36f56"/>
    </linearGradient>
    <linearGradient id="linear-gradient-14" x1="2538.71" y1="2650.22" x2="2651.23" y2="2650.22" gradientTransform="translate(-257.85 -17.43) rotate(1.66)" gradientUnits="userSpaceOnUse">
      <stop offset="0" stop-color="#444b8c"/>
      <stop offset="1" stop-color="#26264f"/>
    </linearGradient>
    <linearGradient id="linear-gradient-15" x1="2275.87" y1="2669.6" x2="2316.21" y2="2669.6" gradientTransform="matrix(1,0,0,1,0,0)" xlink:href="#linear-gradient-13"/>
    <linearGradient id="linear-gradient-16" x1="2889.83" y1="2183.06" x2="3009.38" y2="2183.06" gradientTransform="translate(-369.64 -196.87) rotate(15.37)" xlink:href="#linear-gradient-14"/>
    <linearGradient id="linear-gradient-17" x1="1916.21" y1="2656.28" x2="1966.03" y2="2656.28" gradientTransform="matrix(1,0,0,1,0,0)" xlink:href="#linear-gradient-13"/>
    <linearGradient id="linear-gradient-18" x1="-884.31" y1="2479.54" x2="-1203.17" y2="1760.77" gradientTransform="translate(992.96) rotate(-180) scale(1 -1)" xlink:href="#linear-gradient-11"/>
    <linearGradient id="linear-gradient-19" x1="-1469.46" y1="2305.47" x2="-1788.31" y2="1586.71" gradientTransform="translate(857.85 45.41) rotate(-172.96) scale(1 -1)" xlink:href="#linear-gradient-11"/>
    <linearGradient id="linear-gradient-20" x1="-1369.84" y1="1347.26" x2="-1045" y2="2905.11" xlink:href="#linear-gradient-13"/>
    <linearGradient id="linear-gradient-21" x1="-1458.88" y1="2331.81" x2="-1316.29" y2="1654.49" xlink:href="#linear-gradient-13"/>
    <linearGradient id="linear-gradient-22" x1="-1580.45" y1="1206.8" x2="-1323.49" y2="2439.1" xlink:href="#linear-gradient-13"/>
    <linearGradient id="linear-gradient-23" x1="-1072.83" y1="1743.22" x2="-1133.63" y2="1570.96" gradientTransform="translate(992.96) rotate(-180) scale(1 -1)" gradientUnits="userSpaceOnUse">
      <stop offset="0" stop-color="#311944"/>
      <stop offset="1" stop-color="#893976"/>
    </linearGradient>
    <linearGradient id="linear-gradient-24" x1="-1338.43" y1="1493.64" x2="-1316.14" y2="1647.66" xlink:href="#linear-gradient-23"/>
    <linearGradient id="linear-gradient-25" x1="2206.45" y1="1517.82" x2="2332.44" y2="1517.82" gradientTransform="matrix(1,0,0,1,0,0)" xlink:href="#linear-gradient-13"/>
    <linearGradient id="linear-gradient-26" x1="-896.71" y1="1507.13" x2="-1015.24" y2="1338.81" gradientTransform="translate(992.96) rotate(-180) scale(1 -1)" xlink:href="#linear-gradient-14"/>
    <linearGradient id="linear-gradient-27" x1="-1124.08" y1="1785.7" x2="-864.67" y2="1258.77" xlink:href="#linear-gradient-23"/>
    <linearGradient id="linear-gradient-28" x1="-1250.8" y1="1447.5" x2="-680.92" y2="1447.5" xlink:href="#linear-gradient-23"/>
    <linearGradient id="linear-gradient-29" x1="1665.02" y1="1582.26" x2="1750.02" y2="1582.26" gradientTransform="matrix(1,0,0,1,0,0)" xlink:href="#linear-gradient-13"/>
    <linearGradient id="linear-gradient-30" x1="2308.84" y1="890.5" x2="2287.11" y2="1259.95" gradientTransform="matrix(1,0,0,1,0,0)" xlink:href="#linear-gradient-13"/>
    <linearGradient id="linear-gradient-31" x1="2427.85" y1="886.55" x2="2342.76" y2="670.43" gradientTransform="translate(-79.54 164.71) rotate(.21)" gradientUnits="userSpaceOnUse">
      <stop offset="0" stop-color="#311944"/>
      <stop offset="1" stop-color="#6b3976"/>
    </linearGradient>
    <linearGradient id="linear-gradient-32" x1="2214.99" y1="935.55" x2="2324.01" y2="935.55" gradientTransform="matrix(1,0,0,1,0,0)" xlink:href="#linear-gradient-13"/>
    <linearGradient id="linear-gradient-33" x1="2401.85" y1="896.9" x2="2316.68" y2="680.56" xlink:href="#linear-gradient-31"/>
    <linearGradient id="linear-gradient-34" x1="2225.47" y1="954.28" x2="2249.43" y2="954.28" gradientTransform="matrix(1,0,0,1,0,0)" xlink:href="#linear-gradient-13"/>
  </defs>
  <g class="cls-45">
    <g id="Layer_2" data-name="Layer 2">
      <g id="Illustration">
        <g id="Order_closed" data-name="Order closed">
          <path class="cls-12" d="m2712.66,1155.07c-67.92-444.59-346.41-990.81-896.59-1047.97,0,0-417.72-50.81-829.51,26.2-244.39,45.7-458.69,181.75-594.29,377.29-135.6,195.54-180.9,433.97-125.92,661.29,35.7,147.64,59.83,300.45,53.21,452.16-11.52,264.04-4.89,510.51,251.35,667.97,228.8,140.6,516.74,264.61,791.45,286.33,186.69,14.76,396.05-9.13,575.98-57.73,916.97-247.7,842.26-920.94,774.33-1365.54Z"/>
          <g>
            <path class="cls-7" d="m1459.05,2104.74c-77.9,21.57-138.56-68.2-89.47-132.42,15.24-19.94,29.71-41.43,43.03-64.6,98.95-172.03,47.81-284.97,136.92-596.39,56.35-196.91,97.65-333.76,216.64-382.04,93.25-37.84,223.03-16.76,286.18,56.77,52.51,61.14,65.1,165.7,58.95,236.44-5.01,57.66-22.73,95.9,1.66,133.22,24.92,38.14,64.41,30.33,89.2,60.21,50.27,60.59-23.57,199.49-35.51,221.94-132.75,249.71-424.24,366.2-552.01,415.48-43.05,16.61-95.11,34.64-155.6,51.39Z"/>
            <g class="cls-48">
              <g class="cls-44">
                <path class="cls-25" d="m1056.16,2191.7l-.75-6.73c124.88-13.98,236.01-40.35,330.31-78.39,138.98-56.06,237.1-136.12,291.65-237.95,42.73-79.78,58.03-169.92,79.2-294.7,16.9-99.61,19.89-171.74,22.53-235.38,3.45-83.24,6.18-148.98,38.71-237.06,33-89.37,86.72-172.83,159.67-248.07l4.86,4.71c-72.29,74.56-125.51,157.22-158.18,245.7-32.15,87.08-34.86,152.36-38.29,235-2.65,63.84-5.65,136.2-22.63,236.23-20.47,120.68-36.65,216.01-79.9,296.76-55.32,103.27-154.6,184.36-295.09,241.04-94.86,38.27-206.59,64.79-332.09,78.84Z"/>
                <path class="cls-25" d="m1771.65,1505.18l-3.01-2.35c-.58-.45-58.19-45.97-105.96-129.52-44.08-77.11-88.66-203.37-50.69-366.99l6.59,1.53c-37.47,161.49,6.49,286.05,49.98,362.1,40.94,71.61,89.03,114.75,101.29,125.11,98.69-162.57,221.8-248.81,307.98-292.59,94.11-47.81,165.88-56.74,166.6-56.82l.8,6.72c-.7.08-71.52,8.93-164.62,56.28-85.89,43.68-208.86,130.01-306.98,293.25l-1.97,3.28Z"/>
                <path class="cls-25" d="m1717.83,1772.86l-.84-2.31c-.4-1.1-40.52-111.05-102.31-213.38-61.4-101.68-246.64-179.19-248.5-179.96l2.59-6.26c1.88.78,189.16,79.13,251.71,182.71,57.15,94.65,95.86,195.74,102.02,212.25,217.75-10.39,554.53-427.23,557.92-431.45l5.28,4.23c-.85,1.07-86.72,107.74-198.6,213.93-150.58,142.94-273.99,217.01-366.81,220.15l-2.46.08Z"/>
                <path class="cls-25" d="m1555.62,2104.18c-75.45,0-123.67-6.29-124.36-6.39l-6.69-.9,4.72-4.82c74.59-76.32,91.25-172.32,49.51-285.35-31.24-84.62-85.26-147.37-85.8-148l5.11-4.44c.55.63,55.37,64.33,87.04,150.09,41.22,111.65,25.2,210.9-46.3,287.49,24.5,2.65,113.95,10.6,230.91.77,126.53-10.65,312.05-44.91,477.29-147.66l321.08-199.67,3.58,5.75-321.08,199.67c-166.43,103.5-353.15,137.98-480.47,148.67-42.34,3.56-81.11,4.79-114.53,4.79Z"/>
              </g>
            </g>
            <g>
              <path class="cls-1" d="m1300.87,2112.67c108.17,63.36,255.01,128.65,422.2,145.15,42.67,4.21,306.24,30.22,336.46-79.23,10.65-38.55-16.65-61.35-3.32-113.15,15.8-61.37,64.24-68.64,125.27-121.28,36.42-31.41,142.99-123.34,110.79-226.84-19.25-61.85-87.18-125.04-154.82-145.5-99.22-30.02-178.37,37.76-310.31,154.76-116.96,103.72-124.13,141.6-209.66,214.81-63.48,54.34-163.08,122.11-316.6,171.29Z"/>
              <g class="cls-46">
                <g class="cls-44">
                  <path class="cls-25" d="m1356.47,2114.12c-67.63,0-133.91-9.51-198.62-28.56-125.45-36.95-240.44-106.85-341.78-207.78l4.78-4.8c100.53,100.12,214.56,169.46,338.92,206.08,165.64,48.78,342.01,34.41,524.23-42.71,189.84-80.35,338.45-208.65,429.69-302.14,63.1-64.65,107.78-150.78,132.81-255.98l6.58,1.57c-25.31,106.41-70.58,193.6-134.55,259.14-91.68,93.94-241.02,222.87-431.9,303.65-112.6,47.66-223.05,71.54-330.16,71.54Z"/>
                  <path class="cls-25" d="m1913.84,1911.75l-.48-3c-.35-2.21-33.48-222.98,106.75-364.47l4.81,4.77c-128.92,130.07-108.71,328.81-105.29,355.63,315.65-17.18,411.79-189.2,433.79-241.65.62-1.47,1.02-2.38,1.21-2.69l5.83,3.44-2.92-1.72,2.95,1.65c-.15.3-.42.95-.83,1.93-22.45,53.55-120.74,229.53-442.79,245.96l-3.04.16Z"/>
                  <path class="cls-25" d="m2000.95,2166.09c-.38,0-.74,0-1.12,0-70.97-.21-182.96-22.13-313.44-125.31l-1.42-1.12.15-1.8c.14-1.69,14.94-170.92,133.15-344.39l119.07-174.74,5.59,3.81-119.07,174.74c-110.64,162.37-129.91,320.83-131.82,339.34,71.24,56.05,182.03,122.33,307.82,122.71.36,0,.72,0,1.07,0,74.84,0,119.88-23.71,120.32-23.95l3.2,5.96c-1.89,1.02-47.02,24.76-123.5,24.76Z"/>
                </g>
              </g>
            </g>
          </g>
          <g>
            <path class="cls-30" d="m2124.05,700.7c11.48,5.83,25.89.48,32.2-11.95,6.31-12.43,2.12-27.22-9.36-33.05-.59-.3-1.2-.56-1.81-.8,2.13-6.88,3.74-13.81,4.82-20.74.66,0,1.32-.01,1.99-.07,13.09-1.17,23.49-13.2,23.21-26.87-.27-13.68-11.11-23.82-24.2-22.65-.68.06-1.36.17-2.02.29-1.37-6.78-3.24-13.4-5.61-19.8.6-.35,1.2-.72,1.79-1.13,11.2-7.85,14.78-23.34,8-34.6-6.78-11.26-21.37-14.02-32.57-6.18-.57.4-1.11.84-1.65,1.28-4.42-4.89-9.28-9.42-14.53-13.56.37-.61.73-1.22,1.06-1.86,6.31-12.43,14.55-26,2.99-31.65-26.76-13.06-38.24-1.88-44.55,10.55-.33.64-.61,1.3-.88,1.95-6.44-1.8-12.96-3.04-19.52-3.73.04-.69.07-1.38.06-2.08-.27-13.67,3.78-21.08-9.36-21.33-28.66-.56-38.33,11.88-38.06,25.56.01.71.07,1.41.14,2.11-6.57,1.87-13.02,4.27-19.3,7.16-.3-.61-.61-1.22-.96-1.81-6.78-11.26-21.36-14.02-32.57-6.18-11.2,7.85-14.78,23.34-8,34.6.35.58.73,1.12,1.11,1.65-4.96,4.96-9.61,10.35-13.9,16.13-.56-.35-1.12-.69-1.71-.99-11.48-5.83-25.89-.48-32.2,11.95-6.31,12.43-2.12,27.22,9.36,33.05.59.3,1.2.56,1.81.8-2.13,6.88-3.74,13.81-4.82,20.74-.66,0-1.32.01-1.99.07-13.09,1.17-23.49,13.2-23.21,26.87.27,13.68,11.11,23.81,24.2,22.65.68-.06,1.36-.17,2.02-.29,1.37,6.78,3.24,13.4,5.61,19.8-.6.35-1.2.72-1.79,1.13-11.2,7.85-14.78,23.34-8,34.6,6.78,11.26,29.24,16.49,40.45,8.64.57-.4-6.77-3.3-6.23-3.74,4.42,4.89,9.28,9.42,14.53,13.56-.37.61-.73,1.22-1.06,1.86-6.31,12.43-2.12,27.22,9.36,33.05,11.48,5.83,25.89.48,32.2-11.95.33-.64.61-1.3.88-1.95,6.44,1.8,12.96,3.04,19.52,3.73-.04.69-.07,1.38-.06,2.08.27,13.67,11.11,23.81,24.2,22.65,13.09-1.17,23.49-13.2,23.21-26.87-.01-.71-.07-1.41-.14-2.11,6.57-1.87,13.02-4.27,19.3-7.16.3.61.61,1.22.96,1.8,6.78,11.26,21.36,14.02,32.57,6.18,11.2-7.85,14.78-23.34,8-34.6-.35-.58-.73-1.12-1.12-1.65,4.96-4.96,9.61-10.35,13.9-16.13.56.35,1.12.69,1.71.99Zm-143.06,1.82c-41.67-21.16-56.88-74.88-33.97-120,22.91-45.12,75.26-64.54,116.92-43.39,41.67,21.16,56.88,74.88,33.97,120-22.91,45.12-75.26,64.54-116.92,43.39Z"/>
            <path class="cls-41" d="m2151.89,634.09c13.09-1.17,23.49-13.2,23.21-26.87-.27-13.67-11.11-23.82-24.2-22.65-.68.06-1.36.17-2.02.29-1.37-6.78-3.24-13.4-5.61-19.8.6-.35,1.2-.72,1.79-1.13,11.2-7.85,25.06-26.81,17.16-37.32-15-19.94-30.52-11.31-41.73-3.46-.57.4-1.11.84-1.65,1.28-4.42-4.89-9.28-9.42-14.53-13.56.37-.61.73-1.22,1.06-1.86,3.43-6.76,3.74-14.22,1.47-20.56-10.82,19.04-21.49,38.17-31.98,57.39,33.24,24.36,43.82,72.36,23.05,113.29-17.61,34.68-52.61,54.15-86.78,51.71-1.52,3.95-3.02,7.93-4.65,11.84-4.43,10.63-9.46,21.03-14.5,31.43,3.17.6,6.35,1.07,9.54,1.4-.04.69-.07,1.38-.06,2.08.27,13.67,8.58,25.29,32.31,24.03,13.13-.7,15.38-14.59,15.11-28.26-.01-.71-.07-1.41-.14-2.11,6.57-1.87,13.02-4.27,19.3-7.16.3.61.61,1.22.96,1.8,6.78,11.26,30.32,16.04,41.52,8.2,11.2-7.85,5.83-25.36-.95-36.62-.35-.58-.73-1.12-1.11-1.65,4.96-4.96,9.61-10.35,13.9-16.13.56.35,1.12.69,1.71.99,11.48,5.83,25.89.48,32.2-11.95,6.31-12.43,2.12-27.22-9.36-33.05-.59-.3-1.2-.56-1.81-.8,2.13-6.88,3.74-13.81,4.82-20.74.66,0,1.32-.01,1.99-.07Z"/>
            <path class="cls-16" d="m2136.39,702.1c11.48,5.83,25.89.48,32.2-11.95,6.31-12.43,2.12-27.22-9.36-33.05-.59-.3-1.2-.56-1.81-.8,2.13-6.88,3.74-13.81,4.82-20.74.66,0,1.32-.01,1.99-.07,13.09-1.17,23.49-13.2,23.21-26.87-.27-13.68-11.11-23.82-24.2-22.65-.68.06-1.36.17-2.03.29-1.37-6.78-3.24-13.4-5.61-19.8.6-.35,1.2-.72,1.79-1.13,11.2-7.85,14.78-23.34,8-34.6-6.78-11.26-21.36-14.02-32.57-6.18-.57.4-1.11.84-1.65,1.28-4.42-4.89-9.28-9.42-14.53-13.56.37-.61.73-1.22,1.06-1.86,6.31-12.43,2.12-27.22-9.36-33.05-11.48-5.83-25.89-.48-32.2,11.95-.33.64-.61,1.3-.88,1.95-6.44-1.8-12.96-3.04-19.52-3.73.04-.69.07-1.38.06-2.08-.27-13.67-11.11-23.81-24.2-22.65-13.09,1.17-23.49,13.2-23.21,26.87.01.71.07,1.41.14,2.11-6.57,1.87-13.02,4.27-19.3,7.16-.3-.61-.61-1.22-.96-1.81-6.78-11.26-21.37-14.02-32.57-6.18-11.2,7.85-14.78,23.34-8,34.6.35.58.73,1.12,1.11,1.65-4.96,4.96-9.61,10.35-13.9,16.13-.55-.35-1.12-.69-1.71-.99-11.48-5.83-25.89-.48-32.2,11.95-6.31,12.43-2.12,27.22,9.36,33.05.59.3,1.2.56,1.81.8-2.13,6.88-3.74,13.81-4.82,20.74-.66,0-1.32.01-1.99.07-13.09,1.17-23.49,13.2-23.21,26.87.27,13.68,11.11,23.81,24.2,22.65.68-.06,1.36-.17,2.02-.29,1.37,6.78,3.24,13.4,5.61,19.8-.6.35-1.2.72-1.79,1.13-11.2,7.85-14.78,23.34-8,34.6,6.78,11.26,21.37,14.02,32.57,6.18.57-.4,1.11-.84,1.65-1.28,4.42,4.89,9.28,9.42,14.53,13.56-.37.61-.73,1.22-1.06,1.86-6.31,12.43-2.12,27.22,9.36,33.05,11.48,5.83,25.89.48,32.2-11.95.33-.64.61-1.3.88-1.95,6.44,1.8,12.96,3.04,19.52,3.73-.04.69-.07,1.38-.06,2.08.27,13.67,11.11,23.81,24.2,22.65,13.09-1.17,23.49-13.2,23.21-26.87-.01-.71-.07-1.41-.14-2.11,6.57-1.87,13.02-4.27,19.3-7.16.3.61.61,1.22.96,1.8,6.78,11.26,21.36,14.03,32.57,6.18,11.2-7.85,14.78-23.34,8-34.6-.35-.58-.73-1.12-1.12-1.65,4.96-4.96,9.61-10.35,13.9-16.13.55.35,1.12.69,1.71.99Zm-143.06,1.82c-41.67-21.16-56.88-74.88-33.97-120,22.91-45.12,75.26-64.54,116.92-43.39,41.67,21.16,56.88,74.88,33.97,120-22.91,45.12-75.26,64.54-116.92,43.39Z"/>
            <g>
              <path class="cls-9" d="m1817.05,466.22c22.48,11.41,50.72.93,63.08-23.41,12.36-24.34,4.15-53.33-18.33-64.74-1.16-.59-2.35-1.09-3.55-1.56,4.18-13.47,7.33-27.04,9.44-40.62,1.29,0,2.58-.03,3.9-.14,25.65-2.29,46-25.85,45.47-52.64-.54-26.79-21.76-46.65-47.41-44.37-1.34.12-2.66.33-3.97.56-2.68-13.28-6.35-26.24-10.98-38.79,1.18-.69,2.35-1.4,3.5-2.21,21.94-15.37,28.96-45.72,15.67-67.77-13.29-22.06-41.85-27.47-63.79-12.1-1.12.79-2.18,1.64-3.23,2.5-8.67-9.58-18.17-18.46-28.46-26.56.72-1.19,1.43-2.39,2.07-3.65,12.36-24.34,28.51-50.93,5.85-61.99-52.41-25.59-74.9-3.68-87.26,20.66-.64,1.26-1.19,2.54-1.72,3.82-12.61-3.52-25.39-5.96-38.24-7.3.08-1.35.14-2.71.12-4.08-.54-26.79,7.41-41.28-18.33-41.78-56.14-1.09-75.08,23.28-74.55,50.06.03,1.4.14,2.77.28,4.13-12.87,3.67-25.5,8.36-37.8,14.03-.58-1.19-1.19-2.38-1.89-3.54-13.29-22.06-41.85-27.47-63.8-12.1-21.94,15.37-28.96,45.72-15.67,67.77.68,1.13,1.43,2.19,2.18,3.23-9.72,9.72-18.82,20.27-27.23,31.59-1.09-.68-2.19-1.35-3.36-1.94-22.48-11.41-50.72-.93-63.08,23.41-12.36,24.34-4.15,53.33,18.33,64.74,1.16.59,2.35,1.09,3.55,1.56-4.18,13.47-7.33,27.04-9.44,40.62-1.29,0-2.58.03-3.89.14-25.65,2.29-46.01,25.86-45.47,52.64.54,26.79,21.77,46.65,47.41,44.36,1.34-.12,2.66-.33,3.97-.56,2.68,13.28,6.35,26.24,10.98,38.79-1.18.69-2.35,1.4-3.5,2.21-21.94,15.37-28.96,45.72-15.67,67.77,13.29,22.06,57.29,32.3,79.23,16.93,1.12-.79-13.25-6.47-12.21-7.33,8.67,9.58,18.17,18.46,28.46,26.56-.72,1.19-1.43,2.39-2.07,3.65-12.36,24.34-4.15,53.33,18.33,64.74,22.48,11.41,50.72.93,63.08-23.41.64-1.26,1.19-2.54,1.72-3.82,12.61,3.52,25.39,5.96,38.24,7.3-.08,1.35-.14,2.71-.12,4.08.54,26.79,21.77,46.65,47.41,44.36,25.65-2.29,46.01-25.86,45.47-52.64-.03-1.4-.15-2.77-.28-4.13,12.87-3.67,25.5-8.36,37.8-14.03.58,1.19,1.19,2.38,1.89,3.53,13.29,22.06,41.85,27.47,63.8,12.1,21.94-15.37,28.96-45.72,15.67-67.77-.68-1.13-1.43-2.19-2.18-3.23,9.72-9.72,18.82-20.27,27.23-31.59,1.09.68,2.19,1.35,3.36,1.94Zm-280.25,3.56c-81.62-41.44-111.41-146.68-66.54-235.06,44.87-88.38,147.42-126.43,229.04-84.99,81.62,41.44,111.41,146.68,66.54,235.06-44.87,88.38-147.42,126.43-229.04,84.99Z"/>
              <path class="cls-29" d="m1871.59,335.74c25.65-2.29,46-25.86,45.47-52.64-.54-26.79-21.76-46.65-47.41-44.36-1.34.12-2.66.33-3.97.56-2.68-13.28-6.35-26.24-10.98-38.79,1.18-.69,2.35-1.4,3.5-2.21,21.94-15.37,49.09-52.52,33.61-73.1-29.38-39.05-59.79-22.15-81.74-6.77-1.12.79-2.18,1.64-3.23,2.5-8.67-9.58-18.17-18.46-28.46-26.56.72-1.19,1.43-2.39,2.07-3.65,6.73-13.25,7.32-27.85,2.88-40.27-21.19,37.3-42.1,74.77-62.64,112.43,65.12,47.72,85.85,141.75,45.15,221.91-34.49,67.93-103.05,106.08-170,101.3-2.99,7.74-5.92,15.53-9.12,23.2-8.68,20.81-18.54,41.2-28.41,61.56,6.21,1.17,12.44,2.09,18.7,2.75-.08,1.35-.14,2.71-.12,4.08.54,26.79,16.8,49.55,63.29,47.08,25.71-1.36,30.13-28.57,29.6-55.36-.03-1.4-.14-2.77-.28-4.13,12.87-3.67,25.5-8.36,37.8-14.03.58,1.2,1.19,2.38,1.89,3.53,13.29,22.06,59.39,31.43,81.34,16.05,21.94-15.37,11.42-49.67-1.87-71.73-.68-1.13-1.43-2.19-2.18-3.23,9.72-9.72,18.82-20.27,27.23-31.59,1.09.68,2.19,1.35,3.36,1.94,22.48,11.42,50.72.93,63.08-23.41,12.36-24.34,4.15-53.33-18.33-64.74-1.16-.59-2.35-1.09-3.55-1.56,4.18-13.47,7.33-27.04,9.44-40.62,1.29,0,2.58-.03,3.9-.14Z"/>
              <path class="cls-34" d="m1841.23,468.97c22.48,11.41,50.72.93,63.08-23.41,12.36-24.34,4.15-53.33-18.33-64.74-1.16-.59-2.35-1.09-3.55-1.56,4.18-13.47,7.33-27.04,9.44-40.62,1.29,0,2.58-.02,3.9-.14,25.65-2.29,46-25.85,45.47-52.64-.54-26.79-21.76-46.65-47.41-44.37-1.34.12-2.66.33-3.97.56-2.68-13.28-6.35-26.24-10.98-38.79,1.18-.69,2.35-1.4,3.5-2.21,21.94-15.37,28.96-45.72,15.67-67.77-13.29-22.06-41.85-27.47-63.8-12.1-1.12.79-2.18,1.64-3.23,2.5-8.67-9.58-18.17-18.46-28.46-26.56.72-1.19,1.43-2.39,2.07-3.65,12.36-24.34,4.15-53.33-18.33-64.74-22.48-11.41-50.72-.93-63.08,23.41-.64,1.26-1.19,2.54-1.72,3.82-12.61-3.52-25.39-5.96-38.24-7.3.08-1.35.14-2.71.12-4.08-.54-26.79-21.77-46.65-47.41-44.36-25.65,2.29-46.01,25.86-45.47,52.64.03,1.4.15,2.77.28,4.13-12.87,3.67-25.5,8.36-37.8,14.03-.58-1.19-1.19-2.38-1.88-3.54-13.29-22.06-41.85-27.47-63.8-12.1-21.94,15.38-28.96,45.72-15.67,67.77.68,1.13,1.43,2.19,2.18,3.23-9.72,9.72-18.82,20.27-27.23,31.59-1.09-.68-2.19-1.35-3.36-1.94-22.48-11.41-50.72-.93-63.08,23.41-12.36,24.34-4.15,53.33,18.33,64.74,1.16.59,2.35,1.09,3.55,1.56-4.18,13.47-7.33,27.04-9.44,40.62-1.29,0-2.58.03-3.9.14-25.65,2.29-46.01,25.86-45.47,52.64.54,26.79,21.77,46.65,47.41,44.36,1.34-.12,2.66-.33,3.97-.56,2.68,13.28,6.35,26.24,10.98,38.79-1.18.69-2.35,1.4-3.5,2.21-21.94,15.37-28.96,45.72-15.67,67.77,13.29,22.06,41.85,27.47,63.79,12.1,1.12-.79,2.18-1.64,3.23-2.5,8.67,9.58,18.17,18.46,28.46,26.56-.72,1.19-1.43,2.39-2.07,3.65-12.36,24.34-4.15,53.33,18.33,64.74,22.48,11.41,50.72.93,63.08-23.41.64-1.26,1.19-2.54,1.72-3.82,12.61,3.52,25.39,5.96,38.24,7.3-.08,1.35-.14,2.71-.12,4.08.54,26.79,21.76,46.65,47.41,44.36,25.65-2.29,46.01-25.86,45.47-52.64-.03-1.4-.15-2.77-.28-4.13,12.87-3.67,25.5-8.36,37.8-14.03.58,1.19,1.19,2.38,1.89,3.53,13.29,22.06,41.85,27.47,63.79,12.1,21.94-15.37,28.96-45.72,15.67-67.77-.68-1.13-1.43-2.19-2.18-3.23,9.72-9.72,18.82-20.27,27.23-31.59,1.09.68,2.19,1.35,3.35,1.94Zm-280.24,3.56c-81.62-41.44-111.41-146.68-66.54-235.06,44.87-88.38,147.42-126.43,229.04-84.99,81.62,41.44,111.41,146.68,66.54,235.06-44.87,88.38-147.42,126.43-229.04,84.99Z"/>
            </g>
          </g>
          <g>
            <path class="cls-14" d="m2728.99,2412.99l-2663.76-23.03v68.13c0,18.49,11.62,34.21,27.35,37.02l753.23,134.16c8.94,1.59,18,2.01,27.02,1.26l1827.21-152.96c16.31-1.37,28.95-17.14,28.95-36.14v-28.44Z"/>
            <g>
              <path class="cls-14" d="m1794.04,1109.29v1139.7c0,14.38-5.24,27.79-13.61,37.75-8.13,9.74-19.33,16.16-31.68,17.09l-1224,90.28-456.36,33.77h-.07l-3.09.07-9.92.6c-30.3,2.23-55.31-21.57-55.31-53.03v-1260.76c0-31.47,25.39-57.79,55.69-57.79h1693.02c24.98,0,45.34,23.89,45.34,52.33Z"/>
              <path class="cls-25" d="m1821.12,1109.29v1139.7c0,21.96-12.19,41.58-29.18,50.21-.25.13-.56.25-.81.38-1.62.79-3.29,1.51-4.99,2.09-.38.14-.77.27-1.15.41-.31.07-.63.17-.9.24-1.24.38-2.48.65-3.75.89-1.51.31-3.05.51-4.63.62l-8.58.56-1218.22,89.64h-.07l-466.19,34.37c-4.49.34-8.89.31-13.07-.48-.41-.07-.79-.04-1.2-.04h-.07c-1.03,0-2.4-.62-3.43-.93-21.75-5.94-37.81-26.29-37.81-51.44v-1260.76c0-31.47,25.32-57.79,55.62-57.79h1693.02c24.98,0,45.41,23.89,45.41,52.33Z"/>
              <path class="cls-10" d="m1722.98,2223.46l-1576.89,108.26c-24.65,1.69-44.69-17.76-44.69-43.45v-1103.79c0-25.69,20.04-46.6,44.69-46.71l1576.89-6.8c20.59-.09,37.24,18.81,37.24,42.21v1005.36c0,23.4-16.65,43.51-37.24,44.92Z"/>
              <path class="cls-25" d="m988.99,1092.26c0,11.71-8.71,21.24-19.47,21.27-10.77.03-19.52-9.46-19.52-21.2s8.74-21.27,19.52-21.27c10.76,0,19.47,9.48,19.47,21.2Z"/>
              <path class="cls-11" d="m82.68,2428.44l1684.47-124,8.57-.63c11.45-.84,21.87-6.5,29.82-15.09-121.22-6.63-196.51-49.65-245.07-94.1-97.53-89.26-80.62-177.29-185.79-235.98-131.19-73.2-234.34,19.55-333.89-71.96-60.35-55.48-30.72-96.86-104.98-179.77-82.25-91.83-135.8-60.96-218.46-143.62-104.52-104.51-52.24-185.82-142.28-260.85-109.22-91.03-227.01-6.78-330.98-94.07-44.84-37.65-69.45-92.39-82.3-150.6h-79.1c-30.3,0-54.93,25.51-54.93,56.98v1260.76c0,31.47,24.63,55.16,54.92,52.94Z"/>
            </g>
            <path class="cls-31" d="m1855.49,2296.9l-1790.26,131.19,780.59,139.03c8.94,1.59,18,2.01,27.02,1.26l1856.15-155.38-845.03-115.2c-9.45-1.29-18.98-1.59-28.48-.89Z"/>
            <polygon class="cls-10" points="326.46 2429.21 1816.9 2318.37 2278.18 2380.75 800.57 2499.23 326.46 2429.21"/>
          </g>
          <path class="cls-33" d="m1685.72,1056.96v1138.03c0,10.5-2.1,20.76-5.16,30.47-4.29,13.76-11.65,26.42-20.92,37.3-17.84,20.93-43.69,35.17-72.52,37.37l-1225.85,92.51-72.29,5.46c-17.43,1.34-33.95-1.06-48.74-6.48-29.71-10.81-51.83-33.77-60.64-63.07-2.68-8.75-3.58-18.05-3.58-27.79v-1243.78h1509.71Z"/>
          <g>
            <path class="cls-40" d="m1614.61,364.08l-1298.51-40.01c-62.92-1.94-114.24,43.92-114.24,102.45v1850.21c0,58.52,51.31,102.09,114.24,97.35l1298.51-97.97c54.4-4.1,98.25-51.16,98.25-105.13V464.82c0-53.97-43.86-99.07-98.25-100.74Z"/>
            <path class="cls-42" d="m238.48,2285.18V416.44c0-33.68,29.51-60.12,65.78-59.07l1320.62,38.39c31.37.91,56.72,26.92,56.72,58.09v1729.51c0,31.17-25.35,58.31-56.72,60.62l-1320.62,97.34c-36.28,2.67-65.78-22.45-65.78-56.13Z"/>
            <path class="cls-15" d="m1614.61,364.08l-1298.51-40.01c-62.92-1.94-114.24,43.92-114.24,102.45v76.01l1511,32.39v-70.09c0-53.97-43.86-99.07-98.25-100.74Z"/>
            <path class="cls-25" d="m404.71,421.5c0,18.95-16.5,33.92-36.9,33.43-20.44-.49-37.04-16.32-37.04-35.34s16.6-33.99,37.04-33.43c20.4.56,36.9,16.39,36.9,35.34Z"/>
            <path class="cls-25" d="m533.18,424.83c0,18.83-16.28,33.7-36.41,33.21-20.17-.49-36.54-16.2-36.54-35.1s16.38-33.77,36.54-33.21c20.12.56,36.41,16.27,36.41,35.1Z"/>
            <path class="cls-25" d="m659.96,428.11c0,18.7-16.07,33.48-35.92,33-19.9-.48-36.06-16.09-36.06-34.86s16.16-33.54,36.06-32.99c19.86.55,35.92,16.15,35.92,34.86Z"/>
            <g>
              <g>
                <path class="cls-25" d="m939.72,888.95l-534.46-.85c-8.71-.01-15.78-6.5-15.78-14.49v-34c0-7.99,7.07-14.43,15.78-14.38l534.46,3c8.12.05,14.69,6.32,14.69,14.03v32.78c0,7.7-6.57,13.93-14.69,13.92Z"/>
                <path class="cls-25" d="m425.99,900.92l45.95,168.51c2.9,10.65,13.32,18.03,25.25,17.89l355.79-4c11.37-.13,21.27-7.54,24.03-17.97l43.33-164.06-494.35-.38Zm131.89,158.63c0,6.69-5.86,12.17-13.09,12.24l-12.49.13c-7.25.07-13.13-5.3-13.13-12v-130.61c0-6.7,5.88-12.14,13.13-12.14h12.49c7.23,0,13.09,5.41,13.09,12.1v130.28Zm69.44-.66c0,6.66-5.81,12.11-12.97,12.18l-12.38.13c-7.18.07-13.01-5.28-13.01-11.95v-130.02c0-6.67,5.83-12.08,13.01-12.09h12.38c7.17,0,12.97,5.39,12.97,12.04v129.69Zm68.82-.65c0,6.63-5.75,12.06-12.86,12.13l-12.27.13c-7.12.07-12.9-5.25-12.9-11.89v-129.44c0-6.64,5.78-12.03,12.9-12.03h12.27c7.1,0,12.86,5.36,12.86,11.99v129.12Zm68.2-.65c0,6.6-5.7,12-12.74,12.07l-12.16.12c-7.06.07-12.78-5.23-12.78-11.84v-128.86c0-6.61,5.73-11.98,12.78-11.98h12.16c7.04,0,12.74,5.34,12.74,11.94v128.54Zm67.6-.64c0,6.57-5.65,11.95-12.63,12.02l-12.05.12c-6.99.07-12.67-5.21-12.67-11.79v-128.29c0-6.58,5.68-11.92,12.67-11.92h12.05c6.98,0,12.63,5.32,12.63,11.88v127.97Z"/>
                <g>
                  <g>
                    <path class="cls-10" d="m486.03,808.54c-8.12,6.46-20.45,5.61-27.54-1.93-7.1-7.54-6.25-18.9,1.89-25.36,8.14-6.45,20.46-5.56,27.54,1.97,7.07,7.53,6.22,18.86-1.89,25.32Z"/>
                    <path class="cls-25" d="m657.55,648.42c-2.68-2.91-8.21-2.59-12.37.7l-169.23,134.39c-4.25,3.37-5.47,8.48-2.73,11.39,2.74,2.92,8.4,2.54,12.65-.83l169.01-134.42c4.15-3.3,5.34-8.33,2.66-11.24Z"/>
                  </g>
                  <g>
                    <path class="cls-10" d="m863.61,811.07c7.72,6.4,19.42,5.72,26.13-1.52,6.7-7.23,5.9-18.28-1.79-24.69-7.7-6.41-19.4-5.76-26.13,1.48-6.74,7.24-5.93,18.32,1.8,24.73Z"/>
                    <path class="cls-25" d="m696.7,649.1c2.66-2.81,8.16-2.3,12.28,1.13l164.22,136.6c4.03,3.35,5.19,8.34,2.59,11.14-2.6,2.8-7.98,2.36-12.02-1l-164.43-136.57c-4.13-3.43-5.31-8.49-2.65-11.29Z"/>
                  </g>
                </g>
              </g>
              <g>
                <polygon class="cls-25" points="1562.05 728.28 1010.92 721.24 1010.92 652.64 1562.05 662.2 1562.05 728.28"/>
                <polygon class="cls-25" points="1562.05 843.97 1010.92 841.34 1010.92 772.74 1562.05 777.89 1562.05 843.97"/>
                <polygon class="cls-25" points="1562.05 959.66 1010.92 961.45 1010.92 892.85 1562.05 893.58 1562.05 959.66"/>
                <polygon class="cls-25" points="1562.05 1075.36 1010.92 1081.55 1010.92 1012.95 1562.05 1009.27 1562.05 1075.36"/>
              </g>
            </g>
            <g>
              <path class="cls-3" d="m1487.09,1660.18c0,277.53-223.63,517.46-500.34,535.95-277.66,18.56-503.44-192.72-503.44-471.96s225.78-519.31,503.44-536.15c276.71-16.78,500.34,194.63,500.34,472.16Z"/>
              <path class="cls-25" d="m1017.48,1210.78c120.86,0,233.23,45.95,316.41,129.39,83.51,83.78,129.51,197.43,129.51,320.01s-49.73,252.17-140.03,348.95c-90.33,96.81-210.44,154.82-338.19,163.36-10.74.72-21.6,1.08-32.27,1.08-120.78,0-233.09-45.87-316.25-129.17-83.6-83.74-129.64-197.47-129.64-320.24,0-266.5,215.86-496.41,481.18-512.5,9.73-.59,19.58-.89,29.29-.89h0Zm-.03-23.69c-10.15,0-20.4.31-30.71.93-277.66,16.84-503.44,256.91-503.44,536.15s207.65,473.1,469.58,473.1c11.18,0,22.48-.38,33.85-1.14,276.71-18.5,500.34-258.43,500.34-535.95s-207.26-473.11-469.64-473.1h0Z"/>
            </g>
            <g>
              <path class="cls-25" d="m1201.09,1958.48c-14.71,1.71-29.5-2.92-40.82-14.34l-393.44-396.6c-25.81-26.02-25.81-70.1,0-98.08,25.61-27.76,66.69-28.84,91.78-2.8l382.77,397.35c22.02,22.86,22.02,63.43,0,90.94-11.07,13.83-25.64,21.82-40.28,23.52Z"/>
              <path class="cls-25" d="m813.04,2003.63c-16.65,1.94-33.39-2.87-46.21-14.94-25.81-24.27-25.81-68.35,0-98.08l393.44-453.16c22.62-26.05,58.93-27.01,81.11-2.48,22.02,24.35,22.02,64.92,0,90.94l-382.77,452.38c-12.52,14.8-29,23.4-45.56,25.33Z"/>
            </g>
          </g>
          <g>
            <path class="cls-20" d="m1914.77,1334.77c-32.69-34.9,57.8-166.01,106.24-223.47,42.31-50.19,85.8-101.78,139.21-95.25,46.89,5.73,92.51,55.18,95.25,102.57,7.35,127.49-294.22,265.75-340.69,216.14Z"/>
            <path class="cls-28" d="m2307.24,2682.08c6.15,5,7.28,17.49,8.02,25.66.33,3.65.5,5.47.09,6.76-2.97,9.4-21.2,10.38-49.77,13.3-45.16,4.61-58.6,8.17-62.13,1.45-3.31-6.3,4.7-16.61,5.61-17.75,4.85-6.11,10.81-8.34,22.32-12.13,21.31-7.01,35.7-10.85,40.06-12.02,27.22-7.27,31.76-8.57,35.8-5.28Z"/>
            <path class="cls-13" d="m2280.39,2640.83l-4.52,51.46c1.28,2.48,16.58,9.94,28.73,3.55l11.61-50.58-35.82-4.42Z"/>
            <path class="cls-23" d="m1949.1,2675.47c7.37,8.14,9.05,23.14,2.64,30.53-6.3,7.26-15.78,1.82-42.66,2.62-28.8.86-36.31,7.66-55.88,2.26-7.91-2.19-21.87-7.49-21.6-13.13.19-3.97,7.29-6.02,31.04-13.97,33.7-11.29,33.55-11.9,40.71-13.09,17.97-2.98,36.02-5.97,45.76,4.79Z"/>
            <path class="cls-4" d="m1930.65,2628.51l-14.44,48.04c1.09,2.58,15.77,11.17,28.37,5.73l21.45-46.63-35.38-7.14Z"/>
            <path class="cls-37" d="m2058.97,1576.33c-2.07,161.46-13.09,342.99-39.52,540.22-26.13,194.93-62.74,371.06-102.68,525.94,18.43,4.96,36.85,9.92,55.28,14.87,46.75-43.59,105.72-112.21,134.18-209.18,17.66-60.19,11.78-91.11,22.98-165.14,17.84-117.87,53.97-179.62,91.31-274.67,33.56-85.41,73.22-210.76,94.49-378.31-85.35-17.91-170.69-35.82-256.04-53.74Z"/>
            <path class="cls-5" d="m2225.3,1560.92c11.28,205.34,20.55,414.51,27.58,627.38,5.28,159.74,9.15,317.45,11.72,473.09,18.82,2.32,37.64,4.65,56.47,6.97,18.19-33.86,42.34-85.63,58.89-151.99,20.1-80.59,15.44-128.45,24.26-211.97,9.89-93.68,24.25-114.09,49.7-232.27,51.65-239.83,77.48-359.75,19.86-434.35-18.7-24.22-77.33-84.96-248.49-76.86Z"/>
            <path class="cls-27" d="m2499.63,1044.84c-44.08-12.4-108.68-26.89-187.8-31.36-112.84-6.38-169.27-9.57-209.25,17.3-92.34,62.07-20.85,205.31-58.65,560.41-5.4,50.71-6.61,101.78-10.52,152.63-6.47,84.19-7.95,88.76-2.09,97.29,36.73,53.5,173.78-27.19,374.66,4.7,112.39,17.85,163.37,58.96,194.16,29.31,35.91-34.58,5.11-127.6-21.41-207.68-30.44-91.92-49.24-93.1-66.51-162.32-18.06-72.35-7.14-109.61-4.32-223.7,1.35-54.59,1.06-135.84-8.26-236.58Z"/>
            <g class="cls-47">
              <path class="cls-8" d="m2226.47,1711.49c52.5-4.11,86.56,25.57,131.88,2.44,62.15-31.72,82.11-130.41,78.15-200.26-6.02-106.13-66.62-134.11-56.17-202.71,5.65-37.1,32.14-86.36,127.24-136.68,1.27,42.35,1.03,78.45.32,107.13-2.81,114.1-13.73,151.35,4.32,223.7,17.28,69.22,36.08,70.41,66.51,162.32,26.51,80.08,57.32,173.1,21.41,207.68-30.79,29.66-81.77-11.46-194.16-29.31-173.08-27.48-298.71,28.55-353.68,10.38,66.42-109.76,126.66-140.98,174.17-144.7Z"/>
            </g>
            <path class="cls-24" d="m2428.01,1052.12c37.5-30.81,112.89,4.07,133.05,13.39,112.39,51.99,213.3,192.08,188.3,340.13-3.75,22.2-21.14,126.06-109.08,176.38-79.35,45.4-186.49,33.73-272.34-30.58-11.73-10.41-23.47-20.82-35.2-31.23-11.54-12.48-23.09-24.95-34.63-37.43,18.14-15.09,48.97-36.86,92.27-50.83,57.08-18.42,98.64,14.63,125.12-10.5,18.28-17.34,18.32-47.97,13.81-66.53-9.1-37.41-42.08-47.93-69.6-74.49-64.67-62.39-76.59-191.42-31.69-228.31Z"/>
            <g>
              <polygon class="cls-21" points="1889.15 1535.44 2391.75 1527.93 2258.1 1592.43 1887.87 1568.2 1889.15 1535.44"/>
              <path class="cls-35" d="m2409.48,1541.29h0c0,9.41-5.89,17.81-14.73,21.02l-160.6,62.96-.73-43.65,158.32-53.69c8.88-2.55,17.74,4.11,17.74,13.36Z"/>
            </g>
            <path class="cls-22" d="m2332.09,1511.55c3.08-.69-15.03-36.78-29.25-32.61-14.22,4.17-83.76,44.47-90.08,61.06l-6.32,16.59s30.33,2.37,49.15-3.95c18.81-6.32,51.42-35.5,76.5-41.09Z"/>
            <g>
              <g>
                <path class="cls-36" d="m2220.1,1275.37l35.43,322.56c1.22,11.13-14.36,27.71-25.54,27.18l-519.71-31.9c-8.54-.41-15.65-6.69-17.1-15.12l-65.23-311.54c-1.95-11.34,18.43-23.05,29.93-22.73l544.62,15.31c9.1.26,16.61,7.18,17.6,16.23Z"/>
                <path class="cls-32" d="m2208.22,1284.78l35.43,322.57c1.22,11.13-7.79,20.72-18.97,20.19l-526.28-24.92c-8.54-.4-15.65-6.69-17.1-15.12l-53.77-312.97c-1.95-11.34,6.97-21.62,18.47-21.3l544.62,15.31c9.09.25,16.61,7.18,17.6,16.22Z"/>
              </g>
              <path class="cls-43" d="m1899.19,1527.03c45.95-19.48,29.73-56.62,84-102.9,71.59-61.05,144.55-34.58,170.1-81.9,7.95-14.74,11.75-37.67-2.1-74.79l39.44,1.11c9.09.25,16.61,7.18,17.6,16.22l35.43,322.57c1.22,11.13-7.79,20.72-18.97,20.19l-526.28-24.92c-8.54-.4-15.65-6.69-17.1-15.12l-7.42-43.19c15.97-8.89,35.05-16.97,57.31-21.48,77.21-15.66,115.09,26.62,168,4.2Z"/>
            </g>
            <path class="cls-39" d="m1665.24,1557.5c-.86-2.6.96-5.28,3.69-5.41,11.12-.57,36.92-.8,51.16,7.92,18.5,11.33,42.42,32.01,22.28,42.44l-18.81,9.75c-.86.45-1.8.59-2.75.38-6.68-1.47-34.82-7.71-37.89-9.26-2.8-1.41-13.53-33.24-17.67-45.82Z"/>
            <g>
              <path class="cls-38" d="m2303.4,890.18c-.28,33.45,3.45,59.99,6.98,78.16,4.04,20.82,6.96,26.2,10.68,30.56,5.6,6.57,14.08,12.08,62.02,23.97,26.09,6.47,29.44,6.29,30.02,8.88,2.81,12.63-68.32,55.67-141.82,45.3-44.98-6.35-85.9-32.01-83.39-45.48,2.53-13.56,47.46-6.28,60.85-30.82,9.32-17.07-1.13-41.3-13.47-61.36,11.95-22.4,56.17-26.79,68.13-49.19Z"/>
              <g>
                <path class="cls-18" d="m2219.92,903.41c-10.61-14.1-11.27-38.72.96-54.28,10.53-13.39,27.09-15.3,37-16.45,28.73-3.32,64.99,8.68,77.6,35.12,7.47,15.67-8.69,48.24-11.22,54.09-2.87,6.62-8.06,8.89-12.87,13.9-6.66,6.94-17.09,17.98-34.12,36.44-1.32-5.45-3.33-12.19-6.53-19.5-1.23-2.81-6.17-13.8-13.65-22.91-14.97-18.26-27.12-13.05-37.18-26.42Z"/>
                <path class="cls-26" d="m2301.56,956.71s-18.89,30.99-56.5,28.54c-33.67-2.19-38.61-77.71-17.1-93.73,7.18-5.35,21.55-7.57,33.23-4.29,6.9,1.93,9.24,4.8,20.58,7.74,10.46,2.71,13.41,1.56,16.57,4.21,3.95,3.32,6.84,11.47.25,33.55,6.43-6.5,14.14-9,19.6-6.42.87.41,3.18,1.99,4.48,4.37,4.71,8.62-3.17,19.64-21.11,26.03Z"/>
                <path class="cls-6" d="m2299.86,894.67c-1.62,1.21,3.34,7.27,3.71,15.85.72,16.65-16.13,36.63-33.32,38.32-10.16,1-12.95-5.12-29.75-6.9-10.4-1.1-19.06.22-24.5,1.41-5.28,18.26-.31,36.46,11.89,44.9,13.14,9.09,29.92,3.58,36.93,1.27,4.69-1.54,19.73-6.46,27.59-20.25,8.19-14.37.15-23.04,9.55-32.76,4.74-4.9,10.96-7.03,17.03-16.52,1.65-2.58,2.74-4.86,3.42-6.4-8.69-9.21-20.19-20.69-22.54-18.93Z"/>
                <path class="cls-19" d="m2228.22,950.12s7.27,3.8,19.84,3.09c.61-.04,1.29.14,1.36.46.29,1.19-7.77,6.54-15.2,4.45-5.27-1.48-9.38-6.48-8.67-7.75.3-.53,1.49-.46,2.67-.26Z"/>
              </g>
            </g>
          </g>
        </g>
      </g>
    </g>
  </g>
</svg>